<?xml version="1.0" encoding="UTF-8" standalone="no"?>
<!DOCTYPE svg PUBLIC "-//W3C//DTD SVG 1.1//EN" "http://www.w3.org/Graphics/SVG/1.1/DTD/svg11.dtd">
<svg width="100%" height="100%" viewBox="0 0 224 224" version="1.1" xmlns="http://www.w3.org/2000/svg" xmlns:xlink="http://www.w3.org/1999/xlink" xml:space="preserve" xmlns:serif="http://www.serif.com/" style="fill-rule:evenodd;clip-rule:evenodd;stroke-linejoin:round;stroke-miterlimit:2;">
    <g transform="matrix(7.92882,0,0,7.92882,-1595.79,-445.855)">
        <g transform="matrix(1,0,0,1,-0.0998949,0)">
            <g transform="matrix(-0.0145509,-0.999894,-0.999894,0.0145509,215.042,56.2382)">
                <path d="M-14.087,-14.293C-21.868,-14.293 -28.176,-7.986 -28.176,-0.206C-28.175,7.575 -21.868,13.883 -14.087,13.883C-6.306,13.883 0.001,7.574 0.001,-0.206C0.001,-7.986 -6.307,-14.294 -14.087,-14.293" style="fill:rgb(255,221,103);fill-rule:nonzero;"/>
            </g>
            <g transform="matrix(1,0,0,1,223.476,78.5612)">
                <path d="M0,-5.515C-0.005,-5.892 -0.235,-6.361 -0.87,-6.473C-2.501,-6.76 -4.909,-7.045 -8.006,-7L-8.007,-7C-11.103,-6.955 -13.503,-6.6 -15.124,-6.265C-15.756,-6.135 -15.971,-5.659 -15.965,-5.283C-15.916,-1.869 -13.231,1.53 -7.884,1.452L-7.883,1.452C-2.536,1.374 0.05,-2.101 0,-5.515" style="fill:rgb(102,78,39);fill-rule:nonzero;"/>
            </g>
            <g transform="matrix(1,0,0,1,221.454,74.8006)">
                <path d="M0,-1.616C-1.033,-1.773 -3.218,-2.045 -5.966,-2.005C-8.715,-1.965 -10.89,-1.63 -11.918,-1.443C-12.524,-1.331 -12.557,-1.084 -12.51,-0.736C-12.482,-0.529 -12.439,-0.279 -12.375,-0.009C-12.304,0.291 -12.246,0.429 -11.775,0.366C-10.875,0.245 -0.992,0.101 -0.089,0.196C0.383,0.245 0.437,0.106 0.5,-0.196C0.556,-0.468 0.592,-0.718 0.614,-0.927C0.65,-1.276 0.609,-1.522 0,-1.616" style="fill:white;fill-rule:nonzero;"/>
            </g>
        </g>
        <g transform="matrix(1,0,0,1,0.808093,0)">
            <g transform="matrix(0.133083,0.0356595,-0.0356595,0.133083,-461.99,-495.451)">
                <path d="M5837.99,2594.84C5838.68,2593.32 5840.19,2592.35 5841.86,2592.35C5843.53,2592.35 5845.04,2593.32 5845.73,2594.84L5857.64,2621.02L5886.22,2624.25C5887.88,2624.44 5889.27,2625.58 5889.79,2627.16C5890.3,2628.75 5889.84,2630.49 5888.61,2631.62L5867.39,2651.03L5873.15,2679.21C5873.48,2680.84 5872.83,2682.52 5871.48,2683.5C5870.13,2684.48 5868.33,2684.58 5866.88,2683.76L5841.86,2669.58L5816.84,2683.76C5815.39,2684.58 5813.59,2684.48 5812.24,2683.5C5810.89,2682.52 5810.24,2680.84 5810.58,2679.21L5816.33,2651.03L5795.11,2631.62C5793.88,2630.49 5793.42,2628.75 5793.94,2627.16C5794.45,2625.58 5795.85,2624.44 5797.51,2624.25L5826.08,2621.02L5837.99,2594.84Z" style="fill:rgb(243,182,0);"/>
            </g>
            <g transform="matrix(-0.133083,0.0356595,0.0356595,0.133083,891.078,-495.451)">
                <path d="M5837.99,2594.84C5838.68,2593.32 5840.19,2592.35 5841.86,2592.35C5843.53,2592.35 5845.04,2593.32 5845.73,2594.84L5857.64,2621.02L5886.22,2624.25C5887.88,2624.44 5889.27,2625.58 5889.79,2627.16C5890.3,2628.75 5889.84,2630.49 5888.61,2631.62L5867.39,2651.03L5873.15,2679.21C5873.48,2680.84 5872.83,2682.52 5871.48,2683.5C5870.13,2684.48 5868.33,2684.58 5866.88,2683.76L5841.86,2669.58L5816.84,2683.76C5815.39,2684.58 5813.59,2684.48 5812.24,2683.5C5810.89,2682.52 5810.24,2680.84 5810.58,2679.21L5816.33,2651.03L5795.11,2631.62C5793.88,2630.49 5793.42,2628.75 5793.94,2627.16C5794.45,2625.58 5795.85,2624.44 5797.51,2624.25L5826.08,2621.02L5837.99,2594.84Z" style="fill:rgb(243,182,0);"/>
            </g>
        </g>
    </g>
</svg>
