<?xml version="1.0" encoding="UTF-8" standalone="no"?>
<!DOCTYPE svg PUBLIC "-//W3C//DTD SVG 1.1//EN" "http://www.w3.org/Graphics/SVG/1.1/DTD/svg11.dtd">
<svg width="100%" height="100%" viewBox="0 0 213 213" version="1.1" xmlns="http://www.w3.org/2000/svg" xmlns:xlink="http://www.w3.org/1999/xlink" xml:space="preserve" xmlns:serif="http://www.serif.com/" style="fill-rule:evenodd;clip-rule:evenodd;stroke-linejoin:round;stroke-miterlimit:2;">
    <g transform="matrix(2.66667,0,0,2.66667,-591.13,190.878)">
        <g transform="matrix(0,-1,-1,0,261.44,-71.5791)">
            <path d="M-39.766,-39.768C-61.729,-39.768 -79.534,-21.963 -79.534,-0.004C-79.534,21.958 -61.729,39.766 -39.766,39.766C-17.805,39.766 0,21.958 0,-0.004C0,-21.963 -17.805,-39.768 -39.766,-39.768" style="fill:rgb(255,221,103);fill-rule:nonzero;"/>
        </g>
        <g transform="matrix(1,0,0,1,301.006,-47.6913)">
            <path d="M0,-9.016C-0.614,-12.534 -2.692,-15.497 -5.916,-16.377C-9.434,-17.341 -12.653,-15.958 -15.776,-12.794C-17.525,-17.607 -20.2,-21.179 -24.418,-23.013C-28.738,-24.896 -32.938,-23.628 -35.586,-20.278C-38.338,-16.793 -39.433,-11.426 -36.488,-4.404C-33.728,2.169 -21.36,15.494 -21.002,15.88C-20.521,15.579 -6.747,6.97 -3.374,2.746C-0.073,-1.391 0.611,-5.51 0,-9.016" style="fill:rgb(244,103,103);fill-rule:nonzero;"/>
        </g>
        <g transform="matrix(1,0,0,1,257.467,-36.4294)">
            <path d="M0,-31.54C-2.646,-34.89 -6.848,-36.158 -11.169,-34.275C-15.39,-32.441 -18.064,-28.869 -19.816,-24.056C-22.939,-27.219 -26.156,-28.601 -29.676,-27.638C-32.897,-26.757 -34.978,-23.796 -35.592,-20.277C-36.2,-16.77 -35.516,-12.652 -32.218,-8.515C-28.842,-4.29 -15.065,4.318 -14.584,4.618C-14.229,4.232 -1.859,-9.094 0.901,-15.668C3.847,-22.688 2.752,-28.055 0,-31.54" style="fill:rgb(244,103,103);fill-rule:nonzero;"/>
        </g>
        <g transform="matrix(1,0,0,1,283.975,-8.97072)">
            <path d="M0,-14.82C0,-15.884 -0.628,-17.218 -2.415,-17.559C-7.007,-18.436 -13.791,-19.34 -22.536,-19.34L-22.537,-19.34C-31.279,-19.34 -38.065,-18.436 -42.656,-17.559C-44.445,-17.217 -45.071,-15.883 -45.071,-14.82C-45.071,-5.182 -37.633,4.52 -22.537,4.52L-22.536,4.52C-7.439,4.52 0,-5.182 0,-14.82" style="fill:rgb(102,78,39);fill-rule:nonzero;"/>
        </g>
        <g transform="matrix(1,0,0,1,278.262,-19.5552)">
            <path d="M0,-3.928C-2.91,-4.414 -9.064,-5.269 -16.822,-5.269C-24.581,-5.269 -30.735,-4.414 -33.644,-3.928C-35.36,-3.638 -35.464,-2.942 -35.345,-1.958C-35.273,-1.371 -35.163,-0.666 -34.994,0.1C-34.805,0.95 -34.646,1.341 -33.315,1.182C-30.769,0.879 -2.87,0.879 -0.325,1.182C1.006,1.34 1.164,0.949 1.354,0.1C1.522,-0.666 1.633,-1.37 1.705,-1.958C1.82,-2.942 1.715,-3.638 0,-3.928" style="fill:white;fill-rule:nonzero;"/>
        </g>
    </g>
</svg>
